<?xml version="1.0" encoding="iso-8859-1"?>
<!-- Generator: Adobe Illustrator 19.0.0, SVG Export Plug-In . SVG Version: 6.00 Build 0)  -->
<svg version="1.1" id="Layer_1" xmlns="http://www.w3.org/2000/svg" xmlns:xlink="http://www.w3.org/1999/xlink" x="0px" y="0px"
	 viewBox="0 0 512 512" style="enable-background:new 0 0 512 512;" xml:space="preserve">
<circle style="fill:#0575A5;" cx="256" cy="256" r="256"/>
<path style="fill:#025E90;" d="M241.078,352.036v4.754h-11.553v58.294l89.137,89.155c84.096-21.161,151.596-83.922,179.464-165.128
	l-234.77-234.778c-5.194-4.608-12.032-7.424-19.528-7.424c-0.589,0-1.162,0.056-1.743,0.092l-0.049-0.054
	c-0.323,0.018-0.63,0.074-0.95,0.102c-0.218,0.02-0.435,0.041-0.653,0.069c-0.765,0.087-1.523,0.2-2.276,0.348
	c-0.205,0.038-0.402,0.082-0.596,0.123c-0.755,0.161-1.495,0.351-2.227,0.568c-0.189,0.056-0.376,0.113-0.563,0.177
	c-0.727,0.23-1.439,0.492-2.135,0.781c-0.182,0.072-0.366,0.146-0.548,0.223c-0.686,0.3-1.354,0.625-2.015,0.97
	c-0.182,0.097-0.358,0.189-0.532,0.287c-0.645,0.356-1.272,0.737-1.882,1.137c-0.177,0.12-0.351,0.228-0.527,0.346
	c-0.589,0.41-1.162,0.842-1.72,1.288c-0.177,0.141-0.356,0.276-0.527,0.417c-0.532,0.448-1.047,0.924-1.551,1.411
	c-0.172,0.164-0.343,0.325-0.512,0.494c-0.481,0.489-0.934,0.993-1.377,1.51c-0.166,0.195-0.34,0.381-0.504,0.584
	c-0.415,0.512-0.804,1.047-1.188,1.587c-0.161,0.228-0.325,0.445-0.481,0.678c-0.356,0.532-0.681,1.088-1.001,1.651
	c-0.148,0.253-0.31,0.502-0.451,0.765c-0.294,0.556-0.558,1.126-0.822,1.7c-0.125,0.287-0.269,0.561-0.389,0.852
	c-0.243,0.573-0.443,1.162-0.643,1.759c-0.105,0.305-0.23,0.604-0.325,0.919c-0.182,0.596-0.328,1.208-0.468,1.823
	c-0.077,0.32-0.174,0.637-0.238,0.96c-0.133,0.653-0.212,1.318-0.302,1.979c-0.041,0.302-0.102,0.596-0.133,0.901
	c-0.1,0.975-0.148,1.958-0.148,2.957c0,1.362,0.118,2.698,0.302,4.014c0.033,0.261,0.064,0.517,0.108,0.776
	c0.207,1.275,0.492,2.522,0.852,3.732c0.056,0.187,0.123,0.361,0.179,0.545c0.379,1.172,0.824,2.324,1.341,3.425
	c0.046,0.095,0.079,0.189,0.125,0.282c0.558,1.167,1.201,2.276,1.902,3.346c0.12,0.177,0.233,0.348,0.351,0.52
	c0.689,1.001,1.418,1.976,2.227,2.885c0.072,0.074,0.11,0.108,0.146,0.187l2.268,2.227l6.912,6.912
	c-1.014,2.01-1.536,4.193-1.536,6.405v7.537l-8.599-8.591l-0.069-0.074h-14.193v2.266h0.038l22.822,22.822v11.93l-26.079-26.086
	l-0.148-0.143c-4.096-4.06-9.728-6.551-15.908-6.551c-12.508,0-22.602,10.135-22.602,22.605c0,5.855,2.194,11.192,5.885,15.214
	l58.847,58.839v18.58l-22.308-22.308c-2.596-2.557-6.144-4.173-10.094-4.173c-3.948,0-7.532,1.615-10.127,4.173
	c-2.56,2.598-4.173,6.18-4.173,10.133c0,3.914,1.613,7.498,4.173,10.092l59.94,59.942v14.259h-5.855V352.036z"/>
<path style="fill:#FF9D4D;" d="M209.992,187.292c0,12.48-10.12,22.628-22.6,22.628c-12.5,0-22.615-10.148-22.615-22.628
	c0-12.493,10.115-22.595,22.615-22.595C199.872,164.698,209.992,174.799,209.992,187.292z"/>
<path style="fill:#FF8E31;" d="M187.392,204.063c-9.257,0-16.765-7.516-16.765-16.771c0-9.247,7.508-16.778,16.765-16.778
	c9.242,0,16.771,7.532,16.771,16.778C204.163,196.549,196.636,204.063,187.392,204.063z"/>
<path style="fill:#F28124;" d="M171.971,188.628c0-9.236,7.508-16.778,16.76-16.778c4.288,0,8.2,1.623,11.164,4.283
	c-3.077-3.451-7.532-5.619-12.5-5.619c-9.257,0-16.765,7.532-16.765,16.778c0,4.972,2.173,9.446,5.614,12.516
	C173.578,196.838,171.971,192.922,171.971,188.628z"/>
<path style="fill:#FF9D4D;" d="M273.234,126.328c0,16.264-13.174,29.473-29.427,29.473c-16.279,0-29.448-13.212-29.448-29.473
	s13.169-29.417,29.448-29.417C260.06,96.911,273.234,110.067,273.234,126.328z"/>
<path style="fill:#FF8E31;" d="M243.809,148.173c-12.06,0-21.834-9.784-21.834-21.847c0-12.035,9.774-21.842,21.834-21.842
	c12.035,0,21.842,9.807,21.842,21.842C265.651,138.391,255.844,148.173,243.809,148.173z"/>
<path style="fill:#F28124;" d="M223.724,128.077c0-12.029,9.777-21.852,21.829-21.852c5.583,0,10.675,2.107,14.528,5.578
	c-4.004-4.495-9.802-7.314-16.271-7.314c-12.06,0-21.834,9.807-21.834,21.842c0,6.479,2.836,12.301,7.319,16.297
	C225.825,138.762,223.724,133.67,223.724,128.077z"/>
<path style="fill:#FF9D4D;" d="M317.304,170.534c0,8.038-6.51,14.566-14.538,14.566c-8.054,0-14.561-6.528-14.561-14.566
	c0-8.038,6.505-14.538,14.561-14.538C310.794,155.999,317.304,162.499,317.304,170.534z"/>
<path style="fill:#FF8E31;" d="M302.769,181.322c-5.962,0-10.796-4.826-10.796-10.788c0-5.944,4.833-10.798,10.796-10.798
	c5.939,0,10.78,4.854,10.78,10.798C313.546,176.497,308.708,181.322,302.769,181.322z"/>
<path style="fill:#F28124;" d="M292.836,171.395c0-5.944,4.826-10.798,10.788-10.798c2.755,0,5.268,1.047,7.181,2.76
	c-1.981-2.227-4.849-3.62-8.036-3.62c-5.962,0-10.796,4.854-10.796,10.798c0,3.203,1.405,6.075,3.61,8.049
	C293.875,176.678,292.836,174.159,292.836,171.395z"/>
<g>
	<path style="fill:#FFFFFF;" d="M343.037,221.86c-2.796-2.79-6.449-4.186-10.104-4.186c-3.653,0-7.306,1.393-10.092,4.186
		c-2.796,2.793-4.188,6.444-4.188,10.099v22.692h-1.144v-32.522c0-3.648-1.398-7.304-4.186-10.099
		c-2.788-2.788-6.441-4.186-10.099-4.186c-3.666,0-7.309,1.398-10.097,4.186c-2.796,2.796-4.188,6.451-4.188,10.099v32.525h-1.144
		V212.58c0-3.663-1.39-7.322-4.178-10.109c-2.796-2.78-6.449-4.175-10.099-4.175c-3.658,0-7.309,1.395-10.104,4.175
		c-2.79,2.788-4.186,6.446-4.186,10.109v42.071h-1.142v-93.074c0-3.656-1.398-7.311-4.186-10.102
		c-2.783-2.788-6.441-4.186-10.102-4.186c-3.656,0-7.311,1.398-10.107,4.186c-2.78,2.79-4.178,6.446-4.178,10.102v93.074v25.277
		l-22.3-22.305c-2.588-2.586-6.149-4.178-10.097-4.178c-3.95,0-7.516,1.595-10.107,4.178c-2.586,2.588-4.178,6.154-4.178,10.102
		c0,3.942,1.595,7.519,4.178,10.099l59.935,59.932h82.852l12.733-23.898c1.51-2.821,2.691-5.865,3.505-9.114
		c0.806-3.249,1.188-6.495,1.188-9.684v-40.41v-22.692C347.218,228.303,345.825,224.653,343.037,221.86z"/>
	<rect x="246.938" y="337.766" style="fill:#FFFFFF;" width="82.852" height="14.298"/>
</g>
<rect x="241.101" y="352.051" style="fill:#B8D1E6;" width="94.551" height="5.215"/>
<rect x="229.504" y="356.787" style="fill:#283A4D;" width="117.706" height="58.301"/>
<rect x="229.504" y="356.787" style="fill:#34495E;" width="58.852" height="58.301"/>
<g>
	<path style="fill:#FFFFFF;" d="M335.642,375.25c0,3.802-3.077,6.874-6.881,6.874c-3.807,0-6.876-3.069-6.876-6.874
		c0-3.817,3.067-6.886,6.876-6.886C332.564,368.363,335.642,371.433,335.642,375.25z"/>
	<rect x="206.643" y="160.435" style="fill:#FFFFFF;" width="14.287" height="2.284"/>
	
		<rect x="221.421" y="133.219" transform="matrix(0.7066 -0.7077 0.7077 0.7066 -34.0181 198.6885)" style="fill:#FFFFFF;" width="2.289" height="14.288"/>
	<rect x="242.662" y="124.434" style="fill:#FFFFFF;" width="2.284" height="14.285"/>
	
		<rect x="263.86" y="133.199" transform="matrix(0.7077 0.7066 -0.7066 0.7077 176.6323 -146.2088)" style="fill:#FFFFFF;" width="2.281" height="14.291"/>
	<rect x="266.65" y="160.435" style="fill:#FFFFFF;" width="14.285" height="2.284"/>
</g>
<g>
</g>
<g>
</g>
<g>
</g>
<g>
</g>
<g>
</g>
<g>
</g>
<g>
</g>
<g>
</g>
<g>
</g>
<g>
</g>
<g>
</g>
<g>
</g>
<g>
</g>
<g>
</g>
<g>
</g>
</svg>
