<?xml version="1.0" encoding="iso-8859-1"?>
<!-- Generator: Adobe Illustrator 19.0.0, SVG Export Plug-In . SVG Version: 6.00 Build 0)  -->
<svg version="1.1" id="Layer_1" xmlns="http://www.w3.org/2000/svg" xmlns:xlink="http://www.w3.org/1999/xlink" x="0px" y="0px"
	 viewBox="0 0 511.999 511.999" style="enable-background:new 0 0 511.999 511.999;" xml:space="preserve">
<g>
	<path style="fill:#FFE1D6;" d="M416.209,191.56c-2.926,0-5.85-1.117-8.082-3.348c-4.463-4.463-4.463-11.701,0-16.166
		c21.969-21.967,21.969-57.713,0-79.681c-10.643-10.643-24.791-16.503-39.841-16.503c-15.05,0-29.198,5.861-39.84,16.503
		c-4.465,4.462-11.7,4.462-16.166,0c-4.463-4.463-4.463-11.701,0-16.166c14.96-14.96,34.849-23.198,56.005-23.198
		c21.156,0,41.047,8.239,56.006,23.198c30.881,30.883,30.881,81.13,0,112.011C422.059,190.443,419.134,191.56,416.209,191.56z"/>
	<path style="fill:#FFE1D6;" d="M396.357,261.187c-5.172,0-9.861-3.535-11.11-8.787c-1.461-6.141,2.333-12.304,8.474-13.765
		c19.625-4.668,37.582-14.719,51.928-29.066c42.658-42.658,42.658-112.068,0-154.727c-42.657-42.657-112.068-42.659-154.728,0
		c-25.742,25.742-36.972,62.477-30.042,98.27c1.2,6.199-2.851,12.195-9.049,13.395c-6.201,1.208-12.195-2.851-13.394-9.049
		c-8.376-43.258,5.202-87.662,36.319-118.78c51.574-51.571,135.486-51.569,187.058,0c51.571,51.571,51.571,135.485,0,187.057
		c-17.341,17.341-39.058,29.492-62.801,35.139C398.123,261.086,397.232,261.187,396.357,261.187z"/>
</g>
<path style="fill:#FFB14D;" d="M313.461,222.606l-57.069,73.234l-27.496-59.825c52.785-52.785,121.598-121.598,121.598-121.598
	c9.828-9.828,25.758-9.82,35.578,0c9.828,9.828,9.828,25.75,0,35.578L313.461,222.606z"/>
<path style="fill:#FF9E24;" d="M323.928,283.295l-31.957,48.122l-43.661-43.661l65.151-65.151c9.828-9.828,25.758-9.82,35.578,0
	c9.828,9.828,9.828,25.75,0,35.578L323.928,283.295z"/>
<path style="fill:#FF8C00;" d="M343.972,334.408l-16.423,32.588l-43.661-43.661l40.04-40.04c9.828-9.828,25.758-9.82,35.578,0
	c9.828,9.828,9.828,25.75,0,35.578L343.972,334.408z"/>
<path style="fill:#FF9E24;" d="M379.55,369.985c0,0-3.176,3.176-8.341,8.341l-51.743-19.414l24.505-24.505
	c9.828-9.828,25.758-9.82,35.578,0C389.378,344.236,389.378,360.158,379.55,369.985z"/>
<path style="fill:#FFB14D;" d="M228.896,236.013l-56.609,56.609c-23.891,23.891-33.695,56.422-28.83,87.426L11.507,511.999H178.94
	l48.235-48.235c31.012,4.874,63.535-4.938,87.426-28.83l56.609-56.609L228.896,236.013z"/>
<g>
</g>
<g>
</g>
<g>
</g>
<g>
</g>
<g>
</g>
<g>
</g>
<g>
</g>
<g>
</g>
<g>
</g>
<g>
</g>
<g>
</g>
<g>
</g>
<g>
</g>
<g>
</g>
<g>
</g>
</svg>
