<?xml version="1.0" encoding="iso-8859-1"?>
<!-- Generator: Adobe Illustrator 19.0.0, SVG Export Plug-In . SVG Version: 6.00 Build 0)  -->
<svg version="1.1" id="Layer_1" xmlns="http://www.w3.org/2000/svg" xmlns:xlink="http://www.w3.org/1999/xlink" x="0px" y="0px"
	 viewBox="0 0 512 512" style="enable-background:new 0 0 512 512;" xml:space="preserve">
<g>
	<polygon style="fill:#E9E7D1;" points="485.332,314.004 485.332,229.814 399.999,174.83 399.999,365.814 	"/>
	<polygon style="fill:#E9E7D1;" points="485.332,478.518 485.332,338.95 364.242,412.469 	"/>
	<polygon style="fill:#E9E7D1;" points="250.792,374.886 48.166,490.667 463.06,490.667 	"/>
	<polygon style="fill:#E9E7D1;" points="26.668,478.382 144.975,410.779 26.668,338.95 	"/>
</g>
<rect x="186.667" y="181.332" style="fill:#D8D8D8;" width="106.666" height="42.666"/>
<polygon style="fill:#E9E7D1;" points="261.333,87.252 213.194,117.335 309.472,117.335 "/>
<path style="fill:#F28544;" d="M166.141,398.684l79.235-45.277c3.219-1.844,7.156-1.854,10.396-0.104l86.828,47.361l36.084-21.909
	c0-0.031-0.018-0.057-0.018-0.088V138.668H133.334v239.999c0,0.031-0.018,0.057-0.018,0.088L166.141,398.684z M165.334,170.669
	c0-5.896,4.771-10.667,10.667-10.667H304c5.896,0,10.667,4.771,10.667,10.667v64c0,5.896-4.771,10.667-10.667,10.667H176
	c-5.896,0-10.667-4.771-10.667-10.667V170.669z M165.334,266.668H336v21.333H165.334V266.668z M165.334,309.334H336v21.333H165.334
	V309.334z"/>
<polygon style="fill:#E9E7D1;" points="112.001,365.814 112.001,174.83 26.668,229.814 26.668,314.004 "/>
<g>
	<path style="fill:#314E55;" d="M501.78,215.033l-99.312-64c-0.776-0.495-1.633-0.683-2.469-0.959v-22.072
		c0-5.896-4.771-10.667-10.667-10.667h-39.61L266.99,65.627c-3.458-2.167-7.854-2.167-11.312,0l-82.733,51.708h-50.277
		c-5.896,0-10.667,4.771-10.667,10.667v22.067c-0.837,0.277-1.694,0.467-2.469,0.964l-99.312,64
		c-3.042,1.969-4.885,5.344-4.885,8.969v277.332c0,5.896,4.771,10.667,10.667,10.667h479.997c5.896,0,10.667-4.771,10.667-10.667
		V224.002C506.665,220.377,504.822,217.002,501.78,215.033z M144.975,410.779L26.668,478.382V338.95L144.975,410.779z
		 M250.792,374.886L463.06,490.667H48.166L250.792,374.886z M485.332,478.518l-121.09-66.049l121.09-73.519V478.518z
		 M485.332,229.814v84.19l-85.333,51.81V174.83L485.332,229.814z M261.333,87.252l48.139,30.083h-96.278L261.333,87.252z
		 M133.334,138.669h245.332v239.999c0,0.031,0.018,0.057,0.018,0.088l-36.084,21.909l-86.828-47.361
		c-3.239-1.75-7.177-1.739-10.396,0.104l-79.235,45.277l-32.824-19.929c0-0.031,0.018-0.057,0.018-0.088L133.334,138.669
		L133.334,138.669z M112.001,174.83v190.984l-85.333-51.81v-84.19L112.001,174.83z"/>
	<path style="fill:#314E55;" d="M176,245.335H304c5.896,0,10.667-4.771,10.667-10.667v-64c0-5.896-4.771-10.667-10.667-10.667H176
		c-5.896,0-10.667,4.771-10.667,10.667v64C165.334,240.564,170.105,245.335,176,245.335z M186.667,181.335h106.666v42.666H186.667
		V181.335z"/>
	<rect x="165.334" y="266.665" style="fill:#314E55;" width="170.666" height="21.333"/>
	<rect x="165.334" y="309.332" style="fill:#314E55;" width="170.666" height="21.333"/>
	<path style="fill:#314E55;" d="M453.332,128.002c2.729,0,5.458-1.042,7.542-3.125l37.708-37.708c4.167-4.167,4.167-10.917,0-15.083
		c-4.167-4.166-10.917-4.167-15.083,0l-37.708,37.708c-4.167,4.167-4.167,10.917,0,15.083
		C447.874,126.96,450.603,128.002,453.332,128.002z"/>
	<path style="fill:#314E55;" d="M51.126,124.877c2.083,2.083,4.813,3.125,7.542,3.125s5.458-1.042,7.542-3.125
		c4.167-4.167,4.167-10.917,0-15.083L28.501,72.086c-4.167-4.167-10.917-4.167-15.083,0c-4.166,4.167-4.167,10.917,0,15.083
		L51.126,124.877z"/>
	<path style="fill:#314E55;" d="M364.041,73.909c1.292,0.521,2.635,0.761,3.958,0.761c4.229,0,8.239-2.531,9.906-6.708
		l21.333-53.333c2.187-5.469-0.479-11.677-5.948-13.864c-5.417-2.177-11.677,0.458-13.864,5.948l-21.333,53.333
		C355.906,65.513,358.572,71.721,364.041,73.909z"/>
	<path style="fill:#314E55;" d="M144.761,67.961c1.667,4.177,5.677,6.708,9.906,6.708c1.323,0,2.667-0.239,3.958-0.761
		c5.469-2.187,8.135-8.396,5.948-13.864L143.24,6.711c-2.187-5.49-8.438-8.125-13.864-5.948c-5.469,2.187-8.135,8.396-5.948,13.864
		L144.761,67.961z"/>
</g>
<g>
</g>
<g>
</g>
<g>
</g>
<g>
</g>
<g>
</g>
<g>
</g>
<g>
</g>
<g>
</g>
<g>
</g>
<g>
</g>
<g>
</g>
<g>
</g>
<g>
</g>
<g>
</g>
<g>
</g>
</svg>
