<?xml version="1.0" encoding="iso-8859-1"?>
<!-- Generator: Adobe Illustrator 19.0.0, SVG Export Plug-In . SVG Version: 6.00 Build 0)  -->
<svg version="1.1" id="Layer_1" xmlns="http://www.w3.org/2000/svg" xmlns:xlink="http://www.w3.org/1999/xlink" x="0px" y="0px"
	 viewBox="0 0 509.287 509.287" style="enable-background:new 0 0 509.287 509.287;" xml:space="preserve">
<circle style="fill:#FBD303;" cx="254.644" cy="254.644" r="254.644"/>
<circle style="fill:#333842;" cx="187.507" cy="416.721" r="37.298"/>
<circle style="fill:#646B79;" cx="187.507" cy="416.721" r="18.988"/>
<circle style="fill:#333842;" cx="351.279" cy="416.721" r="37.298"/>
<circle style="fill:#646B79;" cx="351.279" cy="416.721" r="18.988"/>
<g>
	<path style="fill:#F1F3F7;" d="M393.664,202.426H136.307c-5.425,0-9.494-4.408-9.494-9.494c0-5.425,4.408-9.494,9.494-9.494
		h257.356c5.425,0,9.494,4.408,9.494,9.494C403.158,198.019,398.75,202.426,393.664,202.426z"/>
	<path style="fill:#F1F3F7;" d="M372.641,240.742H157.33c-5.425,0-9.494-4.408-9.494-9.494c0-5.425,4.408-9.494,9.494-9.494h215.311
		c5.425,0,9.494,4.408,9.494,9.494C382.135,236.334,378.066,240.742,372.641,240.742z"/>
</g>
<path style="fill:#F0582F;" d="M30.856,45.775c-9.155-2.034-17.971,3.391-20.005,12.546c-2.034,8.816,3.391,17.971,12.546,20.005
	l43.74,10.172l12.546-31.195L30.856,45.775z"/>
<path style="fill:#FCFCFD;" d="M384.848,262.442l44.419-110.199c2.034-5.086,1.356-10.85-1.695-15.597
	c-3.052-4.747-8.138-7.46-13.902-7.46H127.491l-23.735-59.338c-6.103-9.833-24.074-12.885-24.074-12.885L67.136,88.159l8.816,2.034
	l78.326,193.95c2.713,6.442,8.816,10.511,15.597,10.511h206.495c11.529,0,21.023,9.494,21.023,21.023s-9.494,21.022-21.023,21.022
	H143.767c-9.155,0-16.615,7.46-16.615,16.615c0,9.155,7.46,16.615,16.615,16.615h232.265c30.177,0,54.591-24.413,54.591-54.591
	C430.283,289.229,410.617,266.511,384.848,262.442z M349.245,261.425H180.726l-39.672-98.67h247.862L349.245,261.425z"/>
<g>
</g>
<g>
</g>
<g>
</g>
<g>
</g>
<g>
</g>
<g>
</g>
<g>
</g>
<g>
</g>
<g>
</g>
<g>
</g>
<g>
</g>
<g>
</g>
<g>
</g>
<g>
</g>
<g>
</g>
</svg>
