<?xml version="1.0" encoding="iso-8859-1"?>
<!-- Generator: Adobe Illustrator 19.0.0, SVG Export Plug-In . SVG Version: 6.00 Build 0)  -->
<svg version="1.1" id="Layer_1" xmlns="http://www.w3.org/2000/svg" xmlns:xlink="http://www.w3.org/1999/xlink" x="0px" y="0px"
	 viewBox="0 0 504.123 504.123" style="enable-background:new 0 0 504.123 504.123;" xml:space="preserve">
<circle style="fill:#90DFAA;" cx="252.062" cy="252.062" r="252.062"/>
<path style="fill:#324A5E;" d="M393.846,182.351c-0.394-2.757-1.575-5.12-3.545-7.089l-65.378-65.772
	c-1.969-1.969-4.332-3.151-7.089-3.151l-56.714-6.302c-3.545-0.394-7.089,0.788-9.846,3.545L91.372,263.089
	c-4.726,4.726-4.726,12.209,0,16.542L220.16,408.418c4.726,4.726,12.209,4.726,16.542,0l159.902-159.902
	c2.363-2.363,3.938-5.908,3.545-9.846L393.846,182.351z M346.585,177.231c-6.695,6.695-16.935,6.695-23.631,0
	s-6.695-16.935,0-23.631s16.935-6.695,23.631,0S353.28,170.535,346.585,177.231z"/>
<path style="fill:#E6E9EE;" d="M252.455,156.751l90.978,90.978c2.363,2.363,2.363,5.908,0,8.271L233.945,365.489
	c-2.363,2.363-5.908,2.363-8.271,0l-90.978-90.978c-2.363-2.363-2.363-5.908,0-8.271l109.489-109.489
	C246.548,154.388,250.092,154.388,252.455,156.751z"/>
<g>
	<path style="fill:#F1543F;" d="M164.628,264.271c3.151,0,5.908,1.182,8.271,3.545c2.363,2.363,3.938,5.12,3.545,8.271
		c0,3.151-1.575,5.908-4.726,9.058l-5.514,5.514l-16.148-16.148l5.514-5.514C158.72,265.846,161.871,264.271,164.628,264.271z
		 M170.142,270.572c-3.545-3.545-7.877-3.545-12.209,0.788l-2.757,2.757l11.028,11.028l3.151-3.151
		c1.969-1.969,3.151-3.938,3.151-5.908C172.898,274.511,172.111,272.542,170.142,270.572z"/>
	<path style="fill:#F1543F;" d="M169.748,257.969c-0.788,0-1.182-0.394-1.575-0.788s-0.788-1.182-0.788-1.575
		c0-0.788,0.394-1.182,0.788-1.575c0.394-0.394,1.182-0.788,1.575-0.788c0.394,0,1.182,0.394,1.575,0.788
		c0.394,0.394,0.788,1.182,0.788,1.575c0,0.788-0.394,1.182-0.788,1.575C170.929,257.575,170.535,257.969,169.748,257.969z
		 M187.077,270.178l-2.757,2.757l-12.603-12.603l2.757-2.757L187.077,270.178z"/>
	<path style="fill:#F1543F;" d="M196.135,254.031c1.182,1.182,1.575,2.363,1.575,3.938c0,1.575-0.788,3.151-2.363,4.332
		c-0.788,0.788-1.969,1.575-3.151,2.363c-1.182,0.788-2.757,1.182-3.938,1.182l-0.788-3.151c2.363-0.394,4.332-1.182,5.908-2.757
		c0.788-0.788,0.788-1.182,1.182-1.969c0-0.788,0-1.182-0.394-1.575c-0.788-0.788-1.969-0.394-4.332,0.788h-0.394
		c-3.151,1.969-5.908,1.969-7.483,0.394c-1.182-1.182-1.575-2.363-1.575-3.938s1.182-3.151,2.363-4.332
		c1.575-1.575,3.151-2.363,5.514-2.757l0.788,2.757c-1.575,0.394-3.151,1.182-4.332,2.363c-0.788,0.788-1.182,1.182-1.182,1.969
		c0,0.788,0,1.182,0.394,1.575c0.394,0.394,0.788,0.394,1.575,0.394c0.394,0,0.788-0.394,1.575-0.788
		c0.788-0.394,1.182-0.788,1.575-0.788c0.394-0.394,1.182-0.394,1.575-0.788c0.394-0.394,1.182-0.394,1.969-0.394
		C193.378,252.062,194.954,252.849,196.135,254.031z"/>
	<path style="fill:#F1543F;" d="M208.345,249.305c-1.575,1.575-3.938,2.757-6.302,2.757s-4.726-0.788-6.302-2.757
		c-1.969-1.969-2.757-3.938-2.757-6.695c0-2.363,1.182-4.726,3.151-6.695c1.969-1.969,3.938-2.757,6.695-2.757l0.394,3.545
		c-1.969,0-3.545,0.788-4.726,1.969c-1.182,1.182-1.575,2.363-1.575,3.938s0.394,2.757,1.575,3.938
		c1.182,1.182,2.363,1.575,3.938,1.575c1.575,0,3.151-0.394,3.938-1.575c1.182-1.182,1.575-2.757,1.575-4.726h3.151
		C211.495,244.972,210.314,247.335,208.345,249.305z"/>
	<path style="fill:#F1543F;" d="M224.492,229.218c0,2.363-0.788,4.726-2.757,6.695c-1.969,1.969-3.938,2.757-6.695,2.757
		c-2.363,0-4.726-0.788-6.302-2.757c-1.969-1.969-2.757-3.938-2.757-6.302s0.788-4.726,2.757-6.695
		c1.969-1.969,3.938-2.757,6.695-2.757c2.363,0,4.726,0.788,6.302,2.757C223.705,224.886,224.492,226.855,224.492,229.218z
		 M215.434,235.126c1.575,0,2.757-0.394,3.938-1.575c1.182-1.182,1.575-2.363,1.575-3.938s-0.788-2.757-1.969-3.938
		s-2.363-1.969-3.938-1.969s-2.757,0.394-3.938,1.575c-1.182,1.182-1.575,2.363-1.575,3.938c0,1.575,0.788,2.757,1.969,3.938
		C212.677,234.732,213.858,235.126,215.434,235.126z"/>
	<path style="fill:#F1543F;" d="M233.945,211.889l-6.695-6.695l2.757-2.757l12.603,12.603l-2.757,2.757l-2.363-2.363
		c0.394,1.182,0.394,2.363,0,3.545c-0.394,1.182-0.788,2.363-1.575,3.151c-1.575,1.575-3.151,1.969-4.726,1.969
		s-3.545-0.788-5.12-2.363l-7.483-7.483l2.757-2.757l6.695,6.695c2.363,2.363,4.332,2.363,6.302,0.394
		c0.788-0.788,1.575-1.969,1.575-3.151S235.126,213.071,233.945,211.889z"/>
	<path style="fill:#F1543F;" d="M242.215,201.649l6.695,6.695l-2.757,2.757l-12.603-12.603l2.757-2.757l2.363,2.363
		c-0.394-1.182-0.394-2.363,0-3.545s0.788-2.363,1.575-3.151c1.575-1.575,3.151-1.969,4.726-1.969c1.575,0,3.545,0.788,5.12,2.363
		l7.483,7.483l-2.757,2.757l-6.695-6.695c-2.363-2.363-4.332-2.363-6.302-0.394c-0.788,0.788-1.575,1.969-1.575,3.151
		S241.034,200.468,242.215,201.649z"/>
	<path style="fill:#F1543F;" d="M254.031,182.745l6.302,6.302c0.788,0.788,1.182,0.788,1.969,0.788c0.788,0,1.182-0.394,1.969-0.788
		c0.394-0.394,0.788-1.182,0.788-2.363l2.757,0.788c0,1.575-0.788,3.151-1.969,4.332s-2.363,1.575-3.938,1.575
		c-1.575,0-3.151-0.788-4.332-1.969l-6.301-6.302l-1.575,1.575l-1.969-1.969l1.575-1.575l-3.938-3.938l2.757-2.757l3.938,3.938
		l3.151-3.151l1.969,1.969L254.031,182.745z"/>
</g>
<circle style="fill:#2C9984;" cx="254.031" cy="276.086" r="35.84"/>
<path style="fill:#4CDBC4;" d="M274.905,296.566c-11.422,11.422-29.932,11.422-41.354,0s-11.422-29.932,0-41.354
	c11.422-11.422,29.932-11.422,41.354,0C285.932,266.634,285.932,285.145,274.905,296.566z"/>
<path style="fill:#FFFFFF;" d="M240.64,268.603c1.969,0,3.545,0.788,5.12,2.363c1.575,1.575,2.363,3.151,2.363,5.12
	s-0.788,3.938-1.969,5.12c-1.575,1.575-3.151,1.969-5.12,1.969c-1.969,0-3.545-0.788-5.12-2.363
	c-1.575-1.575-2.363-3.151-2.363-5.12c0-1.969,0.788-3.938,1.969-5.12C236.702,268.997,238.671,268.603,240.64,268.603z
	 M253.243,254.031l6.302,40.566l-4.332,4.332l-6.302-40.566L253.243,254.031z M243.791,276.48c0-0.788-0.394-1.575-1.182-2.363
	c-0.788-0.788-1.575-1.182-2.363-1.182c-0.788,0-1.575,0-1.969,0.788c-0.394,0.394-0.788,1.182-0.788,1.969
	c0,0.788,0.394,1.575,1.182,2.363c0.788,0.788,1.575,1.182,2.363,1.182c0.788,0,1.575,0,1.969-0.788
	C243.791,277.662,243.791,277.268,243.791,276.48z M267.422,268.997c1.969,0,3.545,0.788,5.12,2.363
	c1.575,1.575,2.363,3.151,2.363,5.12s-0.788,3.545-1.969,5.12c-1.575,1.575-3.151,1.969-5.12,1.969c-1.969,0-3.545-0.788-5.12-2.363
	c-1.575-1.575-2.363-3.151-2.363-5.12s0.788-3.545,1.969-5.12C263.483,269.391,265.452,268.603,267.422,268.997z M270.572,276.48
	c0-0.788-0.394-1.575-1.182-2.363c-0.788-0.788-1.575-1.182-2.363-1.182s-1.575,0-1.969,0.788c-0.394,0.394-0.788,1.182-0.788,1.969
	c0,0.788,0.394,1.575,1.182,2.363c0.788,0.788,1.575,1.182,2.363,1.182c0.788,0,1.575,0,1.969-0.788
	C270.572,278.055,270.966,277.268,270.572,276.48z"/>
<path style="fill:#ACB3BA;" d="M351.705,165.022c-0.394,3.545-1.969,6.695-4.726,9.452c-6.695,6.695-16.935,6.695-23.631,0
	c-3.151-3.151-4.726-7.483-4.726-11.422c-0.788,4.726,0.788,10.24,4.332,14.178c6.695,6.695,16.935,6.695,23.631,0
	C350.129,173.686,351.705,169.354,351.705,165.022z"/>
<g>
</g>
<g>
</g>
<g>
</g>
<g>
</g>
<g>
</g>
<g>
</g>
<g>
</g>
<g>
</g>
<g>
</g>
<g>
</g>
<g>
</g>
<g>
</g>
<g>
</g>
<g>
</g>
<g>
</g>
</svg>
